<svg width="22" height="17" viewBox="0 0 22 17" fill="none" xmlns="http://www.w3.org/2000/svg">
<rect width="22" height="17" fill="#E5E5E5"/>
<g clip-path="url(#clip0)">
<rect width="1440" height="900" transform="translate(-27 -119)" fill="#F4F6F9"/>
<g filter="url(#filter0_d)">
<rect x="-27" y="-119" width="220" height="900" fill="white"/>
</g>
<g opacity="0.6">
<mask id="path-2-outside-1" maskUnits="userSpaceOnUse" x="7.65723" y="2.75989" width="11" height="11" fill="black">
<rect fill="white" x="7.65723" y="2.75989" width="11" height="11"/>
<path d="M17.9976 3.98673C17.7322 3.7236 17.3155 3.6848 17.0052 3.89441C15.8362 4.6843 9.97275 8.65627 9.3426 9.28093C8.42877 10.1869 8.42877 11.6609 9.3426 12.5668C9.79951 13.0197 10.3997 13.2462 10.9999 13.2462C11.6001 13.2462 12.2003 13.0197 12.6572 12.5668C13.2873 11.9421 17.294 6.12948 18.0908 4.97063C18.3022 4.66304 18.2631 4.24993 17.9976 3.98673ZM11.5523 11.4715C11.2477 11.7735 10.7521 11.7735 10.4475 11.4715C10.1429 11.1696 10.1428 10.6784 10.4473 10.3764C10.6922 10.1365 12.3569 8.95955 14.4051 7.54818C12.9814 9.57864 11.7942 11.2289 11.5523 11.4715Z"/>
</mask>
<path d="M17.9976 3.98673C17.7322 3.7236 17.3155 3.6848 17.0052 3.89441C15.8362 4.6843 9.97275 8.65627 9.3426 9.28093C8.42877 10.1869 8.42877 11.6609 9.3426 12.5668C9.79951 13.0197 10.3997 13.2462 10.9999 13.2462C11.6001 13.2462 12.2003 13.0197 12.6572 12.5668C13.2873 11.9421 17.294 6.12948 18.0908 4.97063C18.3022 4.66304 18.2631 4.24993 17.9976 3.98673ZM11.5523 11.4715C11.2477 11.7735 10.7521 11.7735 10.4475 11.4715C10.1429 11.1696 10.1428 10.6784 10.4473 10.3764C10.6922 10.1365 12.3569 8.95955 14.4051 7.54818C12.9814 9.57864 11.7942 11.2289 11.5523 11.4715Z" fill="#545F7D"/>
<path d="M17.9976 3.98673C17.7322 3.7236 17.3155 3.6848 17.0052 3.89441C15.8362 4.6843 9.97275 8.65627 9.3426 9.28093C8.42877 10.1869 8.42877 11.6609 9.3426 12.5668C9.79951 13.0197 10.3997 13.2462 10.9999 13.2462C11.6001 13.2462 12.2003 13.0197 12.6572 12.5668C13.2873 11.9421 17.294 6.12948 18.0908 4.97063C18.3022 4.66304 18.2631 4.24993 17.9976 3.98673ZM11.5523 11.4715C11.2477 11.7735 10.7521 11.7735 10.4475 11.4715C10.1429 11.1696 10.1428 10.6784 10.4473 10.3764C10.6922 10.1365 12.3569 8.95955 14.4051 7.54818C12.9814 9.57864 11.7942 11.2289 11.5523 11.4715Z" stroke="#545F7D" stroke-width="0.2" mask="url(#path-2-outside-1)"/>
<mask id="path-3-outside-2" maskUnits="userSpaceOnUse" x="0" y="0.0107422" width="16" height="17" fill="black">
<rect fill="white" y="0.0107422" width="16" height="17"/>
<path d="M4.60277 14.5264L3.63832 14.9928C2.93262 13.7442 2.5625 12.3507 2.5625 10.9241C2.5625 9.8789 2.75691 8.87785 3.11172 7.95463L4.21684 8.48011C4.32582 8.53192 4.44086 8.55648 4.55418 8.55648C4.84531 8.55648 5.1248 8.39442 5.25914 8.11676C5.4457 7.73111 5.28164 7.26847 4.89258 7.08349L3.80148 6.56466C5.15762 4.37211 7.50399 2.84347 10.2188 2.59525V3.76011C10.2188 4.18786 10.5686 4.53459 11 4.53459C11.4315 4.53459 11.7813 4.18786 11.7813 3.76011V2.59467C12.7121 2.67867 13.6127 2.91364 14.4677 3.29624C14.8608 3.47224 15.3236 3.29879 15.5011 2.90903C15.6787 2.51916 15.5038 2.06047 15.1105 1.88447C13.815 1.30474 12.432 1.01074 11 1.01074C8.32891 1.01074 5.8177 2.04189 3.92891 3.91427C2.0402 5.7867 1 8.27615 1 10.9241C1 12.8808 1.58586 14.7839 2.69426 16.4274C2.84355 16.6487 3.09039 16.7715 3.34422 16.7715C3.45961 16.7715 3.57648 16.7461 3.68629 16.693L5.28785 15.9185C5.67566 15.731 5.83668 15.2674 5.6475 14.8829C5.45832 14.4985 4.99059 14.3389 4.60277 14.5264Z"/>
</mask>
<path d="M4.60277 14.5264L3.63832 14.9928C2.93262 13.7442 2.5625 12.3507 2.5625 10.9241C2.5625 9.8789 2.75691 8.87785 3.11172 7.95463L4.21684 8.48011C4.32582 8.53192 4.44086 8.55648 4.55418 8.55648C4.84531 8.55648 5.1248 8.39442 5.25914 8.11676C5.4457 7.73111 5.28164 7.26847 4.89258 7.08349L3.80148 6.56466C5.15762 4.37211 7.50399 2.84347 10.2188 2.59525V3.76011C10.2188 4.18786 10.5686 4.53459 11 4.53459C11.4315 4.53459 11.7813 4.18786 11.7813 3.76011V2.59467C12.7121 2.67867 13.6127 2.91364 14.4677 3.29624C14.8608 3.47224 15.3236 3.29879 15.5011 2.90903C15.6787 2.51916 15.5038 2.06047 15.1105 1.88447C13.815 1.30474 12.432 1.01074 11 1.01074C8.32891 1.01074 5.8177 2.04189 3.92891 3.91427C2.0402 5.7867 1 8.27615 1 10.9241C1 12.8808 1.58586 14.7839 2.69426 16.4274C2.84355 16.6487 3.09039 16.7715 3.34422 16.7715C3.45961 16.7715 3.57648 16.7461 3.68629 16.693L5.28785 15.9185C5.67566 15.731 5.83668 15.2674 5.6475 14.8829C5.45832 14.4985 4.99059 14.3389 4.60277 14.5264Z" fill="#545F7D"/>
<path d="M4.60277 14.5264L3.63832 14.9928C2.93262 13.7442 2.5625 12.3507 2.5625 10.9241C2.5625 9.8789 2.75691 8.87785 3.11172 7.95463L4.21684 8.48011C4.32582 8.53192 4.44086 8.55648 4.55418 8.55648C4.84531 8.55648 5.1248 8.39442 5.25914 8.11676C5.4457 7.73111 5.28164 7.26847 4.89258 7.08349L3.80148 6.56466C5.15762 4.37211 7.50399 2.84347 10.2188 2.59525V3.76011C10.2188 4.18786 10.5686 4.53459 11 4.53459C11.4315 4.53459 11.7813 4.18786 11.7813 3.76011V2.59467C12.7121 2.67867 13.6127 2.91364 14.4677 3.29624C14.8608 3.47224 15.3236 3.29879 15.5011 2.90903C15.6787 2.51916 15.5038 2.06047 15.1105 1.88447C13.815 1.30474 12.432 1.01074 11 1.01074C8.32891 1.01074 5.8177 2.04189 3.92891 3.91427C2.0402 5.7867 1 8.27615 1 10.9241C1 12.8808 1.58586 14.7839 2.69426 16.4274C2.84355 16.6487 3.09039 16.7715 3.34422 16.7715C3.45961 16.7715 3.57648 16.7461 3.68629 16.693L5.28785 15.9185C5.67566 15.731 5.83668 15.2674 5.6475 14.8829C5.45832 14.4985 4.99059 14.3389 4.60277 14.5264Z" stroke="#545F7D" stroke-width="0.2" mask="url(#path-3-outside-2)"/>
<mask id="path-4-outside-3" maskUnits="userSpaceOnUse" x="15.234" y="5.39319" width="6" height="12" fill="black">
<rect fill="white" x="15.234" y="5.39319" width="6" height="12"/>
<path d="M20.1184 6.84925C19.9409 6.45941 19.4783 6.28593 19.0849 6.46201C18.6917 6.63801 18.5168 7.09669 18.6943 7.48653C19.1874 8.56918 19.4373 9.72575 19.4373 10.9241C19.4373 12.3528 19.066 13.7486 18.3582 14.9986L17.3513 14.5232C16.9618 14.3394 16.4956 14.5033 16.3101 14.8895C16.1246 15.2757 16.29 15.7379 16.6796 15.9218L18.3202 16.6962C18.4281 16.7472 18.5425 16.7715 18.6556 16.7715C18.9096 16.7715 19.1564 16.6486 19.3055 16.4274C20.414 14.7839 20.9998 12.8808 20.9998 10.9241C20.9998 9.50452 20.7032 8.13353 20.1184 6.84925Z"/>
</mask>
<path d="M20.1184 6.84925C19.9409 6.45941 19.4783 6.28593 19.0849 6.46201C18.6917 6.63801 18.5168 7.09669 18.6943 7.48653C19.1874 8.56918 19.4373 9.72575 19.4373 10.9241C19.4373 12.3528 19.066 13.7486 18.3582 14.9986L17.3513 14.5232C16.9618 14.3394 16.4956 14.5033 16.3101 14.8895C16.1246 15.2757 16.29 15.7379 16.6796 15.9218L18.3202 16.6962C18.4281 16.7472 18.5425 16.7715 18.6556 16.7715C18.9096 16.7715 19.1564 16.6486 19.3055 16.4274C20.414 14.7839 20.9998 12.8808 20.9998 10.9241C20.9998 9.50452 20.7032 8.13353 20.1184 6.84925Z" fill="#545F7D"/>
<path d="M20.1184 6.84925C19.9409 6.45941 19.4783 6.28593 19.0849 6.46201C18.6917 6.63801 18.5168 7.09669 18.6943 7.48653C19.1874 8.56918 19.4373 9.72575 19.4373 10.9241C19.4373 12.3528 19.066 13.7486 18.3582 14.9986L17.3513 14.5232C16.9618 14.3394 16.4956 14.5033 16.3101 14.8895C16.1246 15.2757 16.29 15.7379 16.6796 15.9218L18.3202 16.6962C18.4281 16.7472 18.5425 16.7715 18.6556 16.7715C18.9096 16.7715 19.1564 16.6486 19.3055 16.4274C20.414 14.7839 20.9998 12.8808 20.9998 10.9241C20.9998 9.50452 20.7032 8.13353 20.1184 6.84925Z" stroke="#545F7D" stroke-width="0.2" mask="url(#path-4-outside-3)"/>
</g>
</g>
<defs>
<filter id="filter0_d" x="-36" y="-129" width="240" height="920" filterUnits="userSpaceOnUse" color-interpolation-filters="sRGB">
<feFlood flood-opacity="0" result="BackgroundImageFix"/>
<feColorMatrix in="SourceAlpha" type="matrix" values="0 0 0 0 0 0 0 0 0 0 0 0 0 0 0 0 0 0 127 0"/>
<feOffset dx="1"/>
<feGaussianBlur stdDeviation="5"/>
<feColorMatrix type="matrix" values="0 0 0 0 0 0 0 0 0 0 0 0 0 0 0 0 0 0 0.0276834 0"/>
<feBlend mode="normal" in2="BackgroundImageFix" result="effect1_dropShadow"/>
<feBlend mode="normal" in="SourceGraphic" in2="effect1_dropShadow" result="shape"/>
</filter>
<clipPath id="clip0">
<rect width="1440" height="900" fill="white" transform="translate(-27 -119)"/>
</clipPath>
</defs>
</svg>
