<svg width="17" height="10" viewBox="0 0 17 10" fill="none" xmlns="http://www.w3.org/2000/svg">
<path d="M16.5279 0.858279C16.528 0.858279 16.528 0.858319 16.528 0.858368C16.528 0.96142 16.4443 1.04495 16.3412 1.04495H0.71667C0.613392 1.04495 0.529846 0.961371 0.529846 0.858279V0.186667C0.529846 0.0835744 0.61357 0 0.71667 0H16.341C16.4443 0 16.5279 0.0835744 16.5279 0.186667V0.85819C16.5279 0.858239 16.5279 0.858279 16.5279 0.858279ZM14.6589 3.17174C14.6589 3.06865 14.5752 2.98526 14.4721 2.98526H2.58561C2.48234 2.98526 2.39879 3.06883 2.39879 3.17174V3.84336C2.39879 3.94645 2.48251 4.02985 2.58561 4.02985H14.4721C14.5754 4.02985 14.6589 3.94627 14.6589 3.84336V3.17174ZM12.7901 6.15664C12.7901 6.05355 12.7064 5.97015 12.6031 5.97015H4.45456C4.35128 5.97015 4.26756 6.05373 4.26756 6.15664V6.82826C4.26756 6.93135 4.35128 7.01475 4.45456 7.01475H12.6031C12.7064 7.01475 12.7901 6.93117 12.7901 6.82826V6.15664ZM10.9211 9.14172C10.9212 9.14172 10.9212 9.14168 10.9212 9.14163C10.9212 9.03858 10.8375 8.95505 10.7344 8.95505H6.3235C6.22023 8.95505 6.13668 9.03863 6.13668 9.14172V9.81333C6.13668 9.91643 6.2204 10 6.3235 10H10.7342C10.8375 10 10.921 9.91643 10.921 9.81333V9.14181C10.921 9.14176 10.9211 9.14172 10.9211 9.14172Z" fill="#39CDCC"/>
</svg>
