<svg width="20" height="20" viewBox="0 0 20 20" fill="none" xmlns="http://www.w3.org/2000/svg">
<rect width="20" height="20" fill="#E5E5E5"/>
<g clip-path="url(#clip0)">
<rect width="1440" height="900" transform="translate(-28 -176)" fill="#F4F6F9"/>
<g filter="url(#filter0_d)">
<rect x="-28" y="-176" width="220" height="900" fill="white"/>
</g>
<g opacity="0.6">
<g clip-path="url(#clip1)">
<mask id="path-2-outside-1" maskUnits="userSpaceOnUse" x="0.679688" y="10.7578" width="2" height="2" fill="black">
<rect fill="white" x="0.679688" y="10.7578" width="2" height="2"/>
<path d="M2.07031 11.7578C1.85469 11.7578 1.67969 11.9328 1.67969 12.1484C1.67969 12.3641 1.85469 12.5391 2.07031 12.5391C2.28594 12.5391 2.46094 12.3641 2.46094 12.1484C2.46094 11.9328 2.28594 11.7578 2.07031 11.7578Z"/>
</mask>
<path d="M2.07031 11.7578C1.85469 11.7578 1.67969 11.9328 1.67969 12.1484C1.67969 12.3641 1.85469 12.5391 2.07031 12.5391C2.28594 12.5391 2.46094 12.3641 2.46094 12.1484C2.46094 11.9328 2.28594 11.7578 2.07031 11.7578Z" fill="#545F7D"/>
<path d="M2.07031 11.7578C1.85469 11.7578 1.67969 11.9328 1.67969 12.1484C1.67969 12.3641 1.85469 12.5391 2.07031 12.5391C2.28594 12.5391 2.46094 12.3641 2.46094 12.1484C2.46094 11.9328 2.28594 11.7578 2.07031 11.7578Z" stroke="#545F7D" stroke-width="0.2" mask="url(#path-2-outside-1)"/>
<mask id="path-3-outside-2" maskUnits="userSpaceOnUse" x="-1" y="9.19531" width="22" height="11" fill="black">
<rect fill="white" x="-1" y="9.19531" width="22" height="11"/>
<path d="M19.3595 13.0517C18.9584 12.77 18.4436 12.7013 17.9826 12.8678C17.9792 12.869 17.9759 12.8702 17.9726 12.8716L14.2811 14.3199C14.2913 14.248 14.2969 14.1752 14.2969 14.1016C14.2969 13.24 13.5959 12.5391 12.7344 12.5391H10.2047C10.1376 12.5391 10.0714 12.5218 10.013 12.4888L7.94918 11.328C7.54109 11.0981 7.07742 10.9766 6.6082 10.9766H4.02344V10.5859C4.02344 10.3702 3.84855 10.1953 3.63281 10.1953H0.390625C0.174883 10.1953 0 10.3702 0 10.5859V17.6172C0 17.8329 0.174883 18.0078 0.390625 18.0078H3.63281C3.84855 18.0078 4.02344 17.8329 4.02344 17.6172V17.2266H4.3173L8.04418 18.7352C8.7734 19.0301 9.54172 19.1797 10.3277 19.1797C11.2036 19.1797 12.0516 18.9958 12.8481 18.6333C12.8501 18.6324 12.8521 18.6315 12.854 18.6305L19.0655 15.6773C19.6337 15.4442 20 14.8987 20 14.284C20 13.7939 19.7606 13.3332 19.3595 13.0517ZM3.24219 17.2266H0.78125V10.9766H3.24219V17.2266ZM18.763 14.9569C18.7554 14.9599 18.7479 14.9632 18.7405 14.9667L12.5217 17.9234C11.8283 18.2386 11.0901 18.3984 10.3277 18.3984C9.64254 18.3984 8.97281 18.268 8.33719 18.011L4.53992 16.4739C4.49336 16.455 4.44359 16.4454 4.39336 16.4454H4.02344V11.7578H6.6082C6.94332 11.7578 7.27441 11.8446 7.56594 12.0088L9.62977 13.1696C9.80473 13.2682 10.0036 13.3203 10.2047 13.3203H12.7344C13.1652 13.3203 13.5156 13.6708 13.5156 14.1016C13.5156 14.3721 13.3739 14.624 13.1435 14.7662L13.1406 14.7673C13.1111 14.779 13.084 14.7941 13.0591 14.8116C12.9581 14.8581 12.8472 14.8828 12.7344 14.8828H8.76328C8.11711 14.8828 7.59141 15.4085 7.59141 16.0547C7.59141 16.2704 7.76629 16.4453 7.98203 16.4453C8.19777 16.4453 8.37266 16.2704 8.37266 16.0547C8.37266 15.8393 8.54789 15.6641 8.76328 15.6641H12.7344C12.9964 15.6641 13.2539 15.5975 13.4809 15.473L18.2524 13.6009C18.4763 13.5217 18.716 13.5544 18.9106 13.6911C19.1064 13.8286 19.2188 14.0446 19.2188 14.284C19.2188 14.5819 19.0398 14.8461 18.763 14.9569Z"/>
</mask>
<path d="M19.3595 13.0517C18.9584 12.77 18.4436 12.7013 17.9826 12.8678C17.9792 12.869 17.9759 12.8702 17.9726 12.8716L14.2811 14.3199C14.2913 14.248 14.2969 14.1752 14.2969 14.1016C14.2969 13.24 13.5959 12.5391 12.7344 12.5391H10.2047C10.1376 12.5391 10.0714 12.5218 10.013 12.4888L7.94918 11.328C7.54109 11.0981 7.07742 10.9766 6.6082 10.9766H4.02344V10.5859C4.02344 10.3702 3.84855 10.1953 3.63281 10.1953H0.390625C0.174883 10.1953 0 10.3702 0 10.5859V17.6172C0 17.8329 0.174883 18.0078 0.390625 18.0078H3.63281C3.84855 18.0078 4.02344 17.8329 4.02344 17.6172V17.2266H4.3173L8.04418 18.7352C8.7734 19.0301 9.54172 19.1797 10.3277 19.1797C11.2036 19.1797 12.0516 18.9958 12.8481 18.6333C12.8501 18.6324 12.8521 18.6315 12.854 18.6305L19.0655 15.6773C19.6337 15.4442 20 14.8987 20 14.284C20 13.7939 19.7606 13.3332 19.3595 13.0517ZM3.24219 17.2266H0.78125V10.9766H3.24219V17.2266ZM18.763 14.9569C18.7554 14.9599 18.7479 14.9632 18.7405 14.9667L12.5217 17.9234C11.8283 18.2386 11.0901 18.3984 10.3277 18.3984C9.64254 18.3984 8.97281 18.268 8.33719 18.011L4.53992 16.4739C4.49336 16.455 4.44359 16.4454 4.39336 16.4454H4.02344V11.7578H6.6082C6.94332 11.7578 7.27441 11.8446 7.56594 12.0088L9.62977 13.1696C9.80473 13.2682 10.0036 13.3203 10.2047 13.3203H12.7344C13.1652 13.3203 13.5156 13.6708 13.5156 14.1016C13.5156 14.3721 13.3739 14.624 13.1435 14.7662L13.1406 14.7673C13.1111 14.779 13.084 14.7941 13.0591 14.8116C12.9581 14.8581 12.8472 14.8828 12.7344 14.8828H8.76328C8.11711 14.8828 7.59141 15.4085 7.59141 16.0547C7.59141 16.2704 7.76629 16.4453 7.98203 16.4453C8.19777 16.4453 8.37266 16.2704 8.37266 16.0547C8.37266 15.8393 8.54789 15.6641 8.76328 15.6641H12.7344C12.9964 15.6641 13.2539 15.5975 13.4809 15.473L18.2524 13.6009C18.4763 13.5217 18.716 13.5544 18.9106 13.6911C19.1064 13.8286 19.2188 14.0446 19.2188 14.284C19.2188 14.5819 19.0398 14.8461 18.763 14.9569Z" fill="#545F7D"/>
<path d="M19.3595 13.0517C18.9584 12.77 18.4436 12.7013 17.9826 12.8678C17.9792 12.869 17.9759 12.8702 17.9726 12.8716L14.2811 14.3199C14.2913 14.248 14.2969 14.1752 14.2969 14.1016C14.2969 13.24 13.5959 12.5391 12.7344 12.5391H10.2047C10.1376 12.5391 10.0714 12.5218 10.013 12.4888L7.94918 11.328C7.54109 11.0981 7.07742 10.9766 6.6082 10.9766H4.02344V10.5859C4.02344 10.3702 3.84855 10.1953 3.63281 10.1953H0.390625C0.174883 10.1953 0 10.3702 0 10.5859V17.6172C0 17.8329 0.174883 18.0078 0.390625 18.0078H3.63281C3.84855 18.0078 4.02344 17.8329 4.02344 17.6172V17.2266H4.3173L8.04418 18.7352C8.7734 19.0301 9.54172 19.1797 10.3277 19.1797C11.2036 19.1797 12.0516 18.9958 12.8481 18.6333C12.8501 18.6324 12.8521 18.6315 12.854 18.6305L19.0655 15.6773C19.6337 15.4442 20 14.8987 20 14.284C20 13.7939 19.7606 13.3332 19.3595 13.0517ZM3.24219 17.2266H0.78125V10.9766H3.24219V17.2266ZM18.763 14.9569C18.7554 14.9599 18.7479 14.9632 18.7405 14.9667L12.5217 17.9234C11.8283 18.2386 11.0901 18.3984 10.3277 18.3984C9.64254 18.3984 8.97281 18.268 8.33719 18.011L4.53992 16.4739C4.49336 16.455 4.44359 16.4454 4.39336 16.4454H4.02344V11.7578H6.6082C6.94332 11.7578 7.27441 11.8446 7.56594 12.0088L9.62977 13.1696C9.80473 13.2682 10.0036 13.3203 10.2047 13.3203H12.7344C13.1652 13.3203 13.5156 13.6708 13.5156 14.1016C13.5156 14.3721 13.3739 14.624 13.1435 14.7662L13.1406 14.7673C13.1111 14.779 13.084 14.7941 13.0591 14.8116C12.9581 14.8581 12.8472 14.8828 12.7344 14.8828H8.76328C8.11711 14.8828 7.59141 15.4085 7.59141 16.0547C7.59141 16.2704 7.76629 16.4453 7.98203 16.4453C8.19777 16.4453 8.37266 16.2704 8.37266 16.0547C8.37266 15.8393 8.54789 15.6641 8.76328 15.6641H12.7344C12.9964 15.6641 13.2539 15.5975 13.4809 15.473L18.2524 13.6009C18.4763 13.5217 18.716 13.5544 18.9106 13.6911C19.1064 13.8286 19.2188 14.0446 19.2188 14.284C19.2188 14.5819 19.0398 14.8461 18.763 14.9569Z" stroke="#545F7D" stroke-width="0.2" mask="url(#path-3-outside-2)"/>
<mask id="path-4-outside-3" maskUnits="userSpaceOnUse" x="12.125" y="6.07031" width="6" height="6" fill="black">
<rect fill="white" x="12.125" y="6.07031" width="6" height="6"/>
<path d="M15.4688 7.07031C14.1764 7.07031 13.125 8.12172 13.125 9.41406C13.125 10.7064 14.1764 11.7578 15.4688 11.7578C16.7611 11.7578 17.8125 10.7064 17.8125 9.41406C17.8125 8.12172 16.7611 7.07031 15.4688 7.07031ZM15.4688 10.9766C14.6072 10.9766 13.9062 10.2756 13.9062 9.41406C13.9062 8.5525 14.6072 7.85156 15.4688 7.85156C16.3303 7.85156 17.0312 8.5525 17.0312 9.41406C17.0312 10.2756 16.3303 10.9766 15.4688 10.9766Z"/>
</mask>
<path d="M15.4688 7.07031C14.1764 7.07031 13.125 8.12172 13.125 9.41406C13.125 10.7064 14.1764 11.7578 15.4688 11.7578C16.7611 11.7578 17.8125 10.7064 17.8125 9.41406C17.8125 8.12172 16.7611 7.07031 15.4688 7.07031ZM15.4688 10.9766C14.6072 10.9766 13.9062 10.2756 13.9062 9.41406C13.9062 8.5525 14.6072 7.85156 15.4688 7.85156C16.3303 7.85156 17.0312 8.5525 17.0312 9.41406C17.0312 10.2756 16.3303 10.9766 15.4688 10.9766Z" fill="#545F7D"/>
<path d="M15.4688 7.07031C14.1764 7.07031 13.125 8.12172 13.125 9.41406C13.125 10.7064 14.1764 11.7578 15.4688 11.7578C16.7611 11.7578 17.8125 10.7064 17.8125 9.41406C17.8125 8.12172 16.7611 7.07031 15.4688 7.07031ZM15.4688 10.9766C14.6072 10.9766 13.9062 10.2756 13.9062 9.41406C13.9062 8.5525 14.6072 7.85156 15.4688 7.85156C16.3303 7.85156 17.0312 8.5525 17.0312 9.41406C17.0312 10.2756 16.3303 10.9766 15.4688 10.9766Z" stroke="#545F7D" stroke-width="0.2" mask="url(#path-4-outside-3)"/>
<mask id="path-5-outside-4" maskUnits="userSpaceOnUse" x="10.5625" y="-0.179688" width="6" height="6" fill="black">
<rect fill="white" x="10.5625" y="-0.179688" width="6" height="6"/>
<path d="M13.9062 0.820312C12.6139 0.820312 11.5625 1.87172 11.5625 3.16406C11.5625 4.45641 12.6139 5.50781 13.9062 5.50781C15.1986 5.50781 16.25 4.45641 16.25 3.16406C16.25 1.87172 15.1986 0.820312 13.9062 0.820312ZM13.9062 4.72656C13.0447 4.72656 12.3438 4.02562 12.3438 3.16406C12.3438 2.3025 13.0447 1.60156 13.9062 1.60156C14.7678 1.60156 15.4688 2.3025 15.4688 3.16406C15.4688 4.02562 14.7678 4.72656 13.9062 4.72656Z"/>
</mask>
<path d="M13.9062 0.820312C12.6139 0.820312 11.5625 1.87172 11.5625 3.16406C11.5625 4.45641 12.6139 5.50781 13.9062 5.50781C15.1986 5.50781 16.25 4.45641 16.25 3.16406C16.25 1.87172 15.1986 0.820312 13.9062 0.820312ZM13.9062 4.72656C13.0447 4.72656 12.3438 4.02562 12.3438 3.16406C12.3438 2.3025 13.0447 1.60156 13.9062 1.60156C14.7678 1.60156 15.4688 2.3025 15.4688 3.16406C15.4688 4.02562 14.7678 4.72656 13.9062 4.72656Z" fill="#545F7D"/>
<path d="M13.9062 0.820312C12.6139 0.820312 11.5625 1.87172 11.5625 3.16406C11.5625 4.45641 12.6139 5.50781 13.9062 5.50781C15.1986 5.50781 16.25 4.45641 16.25 3.16406C16.25 1.87172 15.1986 0.820312 13.9062 0.820312ZM13.9062 4.72656C13.0447 4.72656 12.3438 4.02562 12.3438 3.16406C12.3438 2.3025 13.0447 1.60156 13.9062 1.60156C14.7678 1.60156 15.4688 2.3025 15.4688 3.16406C15.4688 4.02562 14.7678 4.72656 13.9062 4.72656Z" stroke="#545F7D" stroke-width="0.2" mask="url(#path-5-outside-4)"/>
<mask id="path-6-outside-5" maskUnits="userSpaceOnUse" x="5.875" y="4.50781" width="6" height="6" fill="black">
<rect fill="white" x="5.875" y="4.50781" width="6" height="6"/>
<path d="M9.21875 5.50781C7.92641 5.50781 6.875 6.55922 6.875 7.85156C6.875 9.14391 7.92641 10.1953 9.21875 10.1953C10.5111 10.1953 11.5625 9.14391 11.5625 7.85156C11.5625 6.55922 10.5111 5.50781 9.21875 5.50781ZM9.21875 9.41406C8.35719 9.41406 7.65625 8.71312 7.65625 7.85156C7.65625 6.99 8.35719 6.28906 9.21875 6.28906C10.0803 6.28906 10.7812 6.99 10.7812 7.85156C10.7812 8.71312 10.0803 9.41406 9.21875 9.41406Z"/>
</mask>
<path d="M9.21875 5.50781C7.92641 5.50781 6.875 6.55922 6.875 7.85156C6.875 9.14391 7.92641 10.1953 9.21875 10.1953C10.5111 10.1953 11.5625 9.14391 11.5625 7.85156C11.5625 6.55922 10.5111 5.50781 9.21875 5.50781ZM9.21875 9.41406C8.35719 9.41406 7.65625 8.71312 7.65625 7.85156C7.65625 6.99 8.35719 6.28906 9.21875 6.28906C10.0803 6.28906 10.7812 6.99 10.7812 7.85156C10.7812 8.71312 10.0803 9.41406 9.21875 9.41406Z" fill="#545F7D"/>
<path d="M9.21875 5.50781C7.92641 5.50781 6.875 6.55922 6.875 7.85156C6.875 9.14391 7.92641 10.1953 9.21875 10.1953C10.5111 10.1953 11.5625 9.14391 11.5625 7.85156C11.5625 6.55922 10.5111 5.50781 9.21875 5.50781ZM9.21875 9.41406C8.35719 9.41406 7.65625 8.71312 7.65625 7.85156C7.65625 6.99 8.35719 6.28906 9.21875 6.28906C10.0803 6.28906 10.7812 6.99 10.7812 7.85156C10.7812 8.71312 10.0803 9.41406 9.21875 9.41406Z" stroke="#545F7D" stroke-width="0.2" mask="url(#path-6-outside-5)"/>
</g>
</g>
</g>
<defs>
<filter id="filter0_d" x="-37" y="-186" width="240" height="920" filterUnits="userSpaceOnUse" color-interpolation-filters="sRGB">
<feFlood flood-opacity="0" result="BackgroundImageFix"/>
<feColorMatrix in="SourceAlpha" type="matrix" values="0 0 0 0 0 0 0 0 0 0 0 0 0 0 0 0 0 0 127 0"/>
<feOffset dx="1"/>
<feGaussianBlur stdDeviation="5"/>
<feColorMatrix type="matrix" values="0 0 0 0 0 0 0 0 0 0 0 0 0 0 0 0 0 0 0.0276834 0"/>
<feBlend mode="normal" in2="BackgroundImageFix" result="effect1_dropShadow"/>
<feBlend mode="normal" in="SourceGraphic" in2="effect1_dropShadow" result="shape"/>
</filter>
<clipPath id="clip0">
<rect width="1440" height="900" fill="white" transform="translate(-28 -176)"/>
</clipPath>
<clipPath id="clip1">
<rect width="20" height="20" fill="white"/>
</clipPath>
</defs>
</svg>
