<svg width="20" height="20" viewBox="0 0 20 20" fill="none" xmlns="http://www.w3.org/2000/svg">
<path d="M9.07703 1V0.95H9.02703H1H0.95V1V9.02703V9.07703H1H9.02703H9.07703V9.02703V1ZM8.00405 8.00405H2.02297V2.02297H8.00405V8.00405Z" fill="#545F7D" stroke="#545F7D" stroke-width="0.1"/>
<path d="M10.923 9.02703V9.07703H10.973H19H19.05V9.02703V1V0.95H19H10.973H10.923V1V9.02703ZM11.996 2.02297H17.9771V8.00405H11.996V2.02297Z" fill="#545F7D" stroke="#545F7D" stroke-width="0.1"/>
<path d="M9.07703 10.9729V10.9229H9.02703H1H0.95V10.9729V18.9999V19.0499H1H9.02703H9.07703V18.9999V10.9729ZM8.00405 17.977H2.02297V11.9959H8.00405V17.977Z" fill="#545F7D" stroke="#545F7D" stroke-width="0.1"/>
<path d="M14.9865 10.9229C12.7454 10.9229 10.923 12.7453 10.923 14.9864C10.923 17.2275 12.7454 19.0499 14.9865 19.0499C17.2277 19.0499 19.05 17.2275 19.05 14.9864C19.05 12.7453 17.2277 10.9229 14.9865 10.9229ZM14.9865 17.977C13.3358 17.977 11.996 16.6372 11.996 14.9864C11.996 13.3356 13.3358 11.9959 14.9865 11.9959C16.6373 11.9959 17.9771 13.3356 17.9771 14.9864C17.9771 16.6372 16.6373 17.977 14.9865 17.977Z" fill="#545F7D" stroke="#545F7D" stroke-width="0.1"/>
</svg>
