<svg width="20" height="19" viewBox="0 0 20 19" fill="none" xmlns="http://www.w3.org/2000/svg">
<rect width="20" height="19" fill="#E5E5E5"/>
<g clip-path="url(#clip0)">
<rect width="1440" height="900" transform="translate(-28 -364)" fill="#F4F6F9"/>
<g filter="url(#filter0_d)">
<rect x="-28" y="-364" width="220" height="900" fill="white"/>
</g>
<g opacity="0.6">
<path d="M0.597287 0.38432C0.432778 0.401413 0.280553 0.478517 0.170183 0.600653C0.0598141 0.722788 -0.000817946 0.881234 6.66717e-05 1.04521V12.9412C-0.00118269 13.0288 0.015138 13.1157 0.0480804 13.197C0.0810228 13.2783 0.12993 13.3522 0.191959 13.4146C0.253989 13.477 0.327904 13.5265 0.409408 13.5603C0.490913 13.5941 0.578381 13.6115 0.666731 13.6115C0.755081 13.6115 0.84255 13.5941 0.924054 13.5603C1.00556 13.5265 1.07947 13.477 1.1415 13.4146C1.20353 13.3522 1.25244 13.2783 1.28538 13.197C1.31832 13.1157 1.33465 13.0288 1.3334 12.9412V1.7061H18.6667V12.2803H3.33339C3.24505 12.2791 3.15734 12.2953 3.07536 12.3279C2.99338 12.3606 2.91877 12.409 2.85586 12.4705C2.79294 12.532 2.74299 12.6053 2.70889 12.6861C2.67479 12.7669 2.65723 12.8536 2.65723 12.9412C2.65723 13.0288 2.67479 13.1155 2.70889 13.1963C2.74299 13.2771 2.79294 13.3504 2.85586 13.4119C2.91877 13.4734 2.99338 13.5218 3.07536 13.5545C3.15734 13.5871 3.24505 13.6033 3.33339 13.6021H9.33337V15.3232L4.90977 16.7138C4.82454 16.7385 4.74514 16.7798 4.67625 16.8354C4.60735 16.891 4.55035 16.9596 4.50858 17.0373C4.46681 17.115 4.44112 17.2002 4.43302 17.2878C4.42492 17.3755 4.43457 17.4639 4.4614 17.5478C4.48823 17.6318 4.53171 17.7095 4.58927 17.7766C4.64684 17.8436 4.71733 17.8986 4.79662 17.9382C4.87591 17.9779 4.96239 18.0014 5.05098 18.0075C5.13958 18.0136 5.22851 18.0021 5.31255 17.9736L10 16.5004L14.6875 17.9736C14.7716 18.0021 14.8605 18.0136 14.9491 18.0075C15.0377 18.0014 15.1242 17.9779 15.2034 17.9382C15.2827 17.8986 15.3532 17.8436 15.4108 17.7766C15.4684 17.7095 15.5118 17.6318 15.5387 17.5478C15.5655 17.4639 15.5751 17.3755 15.567 17.2878C15.5589 17.2002 15.5333 17.115 15.4915 17.0373C15.4497 16.9596 15.3927 16.891 15.3238 16.8354C15.2549 16.7798 15.1755 16.7385 15.0903 16.7138L10.6667 15.3232V13.6021H19.3333C19.5101 13.6021 19.6797 13.5324 19.8047 13.4085C19.9297 13.2846 20 13.1165 20 12.9412V1.04521C20 0.869935 19.9297 0.701846 19.8047 0.577909C19.6797 0.453972 19.5101 0.384337 19.3333 0.38432H0.666731C0.643599 0.383124 0.620419 0.383124 0.597287 0.38432ZM12.8195 3.02787C12.7319 3.03238 12.6461 3.05394 12.567 3.09132C12.4878 3.12871 12.4169 3.18118 12.3582 3.24575C12.2995 3.31031 12.2542 3.38571 12.2249 3.46763C12.1956 3.54955 12.1829 3.63639 12.1874 3.72319C12.192 3.80999 12.2137 3.89505 12.2515 3.97351C12.2892 4.05197 12.3421 4.12229 12.4073 4.18047C12.4724 4.23864 12.5485 4.28352 12.6311 4.31255C12.7138 4.34158 12.8014 4.35419 12.8889 4.34965H15.3333V6.77291C15.3321 6.86048 15.3484 6.94743 15.3814 7.0287C15.4143 7.10997 15.4632 7.18394 15.5252 7.2463C15.5873 7.30867 15.6612 7.3582 15.7427 7.392C15.8242 7.4258 15.9117 7.44321 16 7.44321C16.0884 7.44321 16.1758 7.4258 16.2573 7.392C16.3388 7.3582 16.4128 7.30867 16.4748 7.2463C16.5368 7.18394 16.5857 7.10997 16.6187 7.0287C16.6516 6.94743 16.6679 6.86048 16.6667 6.77291V3.68876C16.6667 3.51349 16.5964 3.3454 16.4714 3.22146C16.3464 3.09753 16.1768 3.02789 16 3.02787H12.8889C12.8658 3.02668 12.8426 3.02668 12.8195 3.02787ZM13.632 5.44425C13.4593 5.45463 13.2974 5.53116 13.1806 5.65766L11.0764 7.83308L9.11809 6.06383C9.00058 5.95719 8.84844 5.89578 8.68921 5.89073C8.52998 5.88568 8.37419 5.93732 8.25004 6.03629L3.58339 9.78133C3.50675 9.83245 3.44167 9.89879 3.39226 9.97616C3.34285 10.0535 3.3102 10.1402 3.29637 10.2308C3.28254 10.3213 3.28784 10.4137 3.31193 10.5021C3.33603 10.5905 3.37838 10.673 3.43632 10.7443C3.49426 10.8156 3.56651 10.8742 3.6485 10.9164C3.73049 10.9586 3.82042 10.9834 3.9126 10.9893C4.00477 10.9952 4.09718 10.982 4.18396 10.9507C4.27075 10.9193 4.35001 10.8704 4.41672 10.8071L8.63893 7.42003L10.6598 9.24436C10.7887 9.36011 10.9582 9.42131 11.1321 9.41488C11.306 9.40844 11.4704 9.3349 11.5903 9.20993L14.1389 6.56638C14.2324 6.47153 14.2949 6.351 14.3184 6.22045C14.3418 6.08991 14.3251 5.95539 14.2705 5.83438C14.2158 5.71336 14.1257 5.61145 14.0118 5.54187C13.8979 5.4723 13.7656 5.43828 13.632 5.44425Z" fill="#545F7D"/>
</g>
</g>
<defs>
<filter id="filter0_d" x="-37" y="-374" width="240" height="920" filterUnits="userSpaceOnUse" color-interpolation-filters="sRGB">
<feFlood flood-opacity="0" result="BackgroundImageFix"/>
<feColorMatrix in="SourceAlpha" type="matrix" values="0 0 0 0 0 0 0 0 0 0 0 0 0 0 0 0 0 0 127 0"/>
<feOffset dx="1"/>
<feGaussianBlur stdDeviation="5"/>
<feColorMatrix type="matrix" values="0 0 0 0 0 0 0 0 0 0 0 0 0 0 0 0 0 0 0.0276834 0"/>
<feBlend mode="normal" in2="BackgroundImageFix" result="effect1_dropShadow"/>
<feBlend mode="normal" in="SourceGraphic" in2="effect1_dropShadow" result="shape"/>
</filter>
<clipPath id="clip0">
<rect width="1440" height="900" fill="white" transform="translate(-28 -364)"/>
</clipPath>
</defs>
</svg>
