<svg width="15" height="14" viewBox="0 0 15 14" fill="none" xmlns="http://www.w3.org/2000/svg">
<path d="M11.6522 9.80926C11.4698 9.62961 11.4546 9.34238 11.598 9.13021C12.2448 8.17263 12.596 7.02522 12.596 5.8653C12.596 2.63699 9.95432 0 6.70422 0C3.45412 0 0.82843 2.63699 0.82843 5.8653C0.82843 9.09361 3.47013 11.7306 6.70422 11.7306C7.85606 11.7306 9.0079 11.3776 9.98024 10.7275C10.1903 10.5871 10.4729 10.6022 10.6517 10.7807L13.5236 13.6474C13.7188 13.8422 14.0349 13.8422 14.2301 13.6474L14.5286 13.3494C14.7252 13.1532 14.7241 12.8342 14.5262 12.6393L11.6522 9.80926ZM6.70422 10.3402C4.25464 10.3402 2.25335 8.34247 2.25335 5.89726C2.25335 3.45205 4.25464 1.45434 6.70422 1.45434C9.1538 1.45434 11.1551 3.45205 11.1551 5.89726C11.1551 8.34247 9.1538 10.3402 6.70422 10.3402Z" fill="#39CDCC"/>
</svg>
