<svg width="18" height="18" viewBox="0 0 18 18" fill="none" xmlns="http://www.w3.org/2000/svg">
<rect width="18" height="18" fill="#E5E5E5"/>
<g clip-path="url(#clip0)">
<rect width="1440" height="900" transform="translate(-28 -436)" fill="#F4F6F9"/>
<g filter="url(#filter0_d)">
<rect x="-28" y="-436" width="220" height="900" fill="white"/>
</g>
<g opacity="0.6">
<path fill-rule="evenodd" clip-rule="evenodd" d="M15.25 8.91338C15.25 9.19425 15.225 9.45861 15.1917 9.72297L16.95 11.0861C17.1083 11.21 17.15 11.433 17.05 11.6148L15.3833 14.4731C15.3083 14.6053 15.1667 14.6797 15.025 14.6797C14.975 14.6797 14.925 14.6714 14.875 14.6549L12.8 13.8288C12.3667 14.1509 11.9 14.4318 11.3917 14.6384L11.075 16.8276C11.05 17.0258 10.875 17.1745 10.6667 17.1745H7.33332C7.12499 17.1745 6.94999 17.0258 6.92499 16.8276L6.60832 14.6384C6.09999 14.4318 5.63332 14.1592 5.19999 13.8288L3.12499 14.6549C3.08332 14.6714 3.03332 14.6797 2.98332 14.6797C2.83332 14.6797 2.69165 14.6053 2.61665 14.4731L0.949988 11.6148C0.849988 11.433 0.891655 11.21 1.04999 11.0861L2.80832 9.72297C2.77499 9.45861 2.74999 9.18599 2.74999 8.91338C2.74999 8.64076 2.77499 8.36814 2.80832 8.10378L1.04999 6.74069C0.891655 6.61678 0.841655 6.39372 0.949988 6.21198L2.61665 3.35362C2.69165 3.22144 2.83332 3.14709 2.97499 3.14709C3.02499 3.14709 3.07499 3.15535 3.12499 3.17187L5.19999 3.99799C5.63332 3.6758 6.09999 3.39493 6.60832 3.1884L6.92499 0.99919C6.94999 0.800922 7.12499 0.652222 7.33332 0.652222H10.6667C10.875 0.652222 11.05 0.800922 11.075 0.99919L11.3917 3.1884C11.9 3.39493 12.3667 3.66754 12.8 3.99799L14.875 3.17187C14.9167 3.15535 14.9667 3.14709 15.0167 3.14709C15.1667 3.14709 15.3083 3.22144 15.3833 3.35362L17.05 6.21198C17.15 6.39372 17.1083 6.61678 16.95 6.74069L15.1917 8.10378C15.225 8.36814 15.25 8.6325 15.25 8.91338ZM13.5833 8.91336C13.5833 8.73988 13.575 8.56639 13.5417 8.3103L13.425 7.37679L14.1667 6.79851L15.0583 6.09631L14.475 5.09671L13.4167 5.51803L12.5333 5.87326L11.775 5.29498C11.4417 5.04714 11.1083 4.85714 10.75 4.70844L9.86665 4.35321L9.73332 3.4197L9.57499 2.30444H8.41665L8.24999 3.4197L8.11665 4.35321L7.23332 4.70844C6.89165 4.84888 6.54999 5.04714 6.19165 5.3115L5.44165 5.87326L4.57499 5.52629L3.51665 5.10497L2.93332 6.10457L3.83332 6.79851L4.57499 7.37679L4.45832 8.3103C4.43332 8.55813 4.41665 8.74814 4.41665 8.91336C4.41665 9.07858 4.43332 9.26859 4.45832 9.52469L4.57499 10.4582L3.83332 11.0365L2.93332 11.7304L3.51665 12.73L4.57499 12.3087L5.45832 11.9535L6.21665 12.5317C6.54999 12.7796 6.88332 12.9696 7.24165 13.1183L8.12499 13.4735L8.25832 14.407L8.41665 15.5223H9.58332L9.74999 14.407L9.88332 13.4735L10.7667 13.1183C11.1083 12.9778 11.45 12.7796 11.8083 12.5152L12.5583 11.9535L13.425 12.3004L14.4833 12.7217L15.0667 11.7222L14.1667 11.0282L13.425 10.4499L13.5417 9.51642C13.5667 9.26859 13.5833 9.08684 13.5833 8.91336ZM8.99999 5.60889C7.15832 5.60889 5.66666 7.08764 5.66666 8.91336C5.66666 10.7391 7.15832 12.2178 8.99999 12.2178C10.8417 12.2178 12.3333 10.7391 12.3333 8.91336C12.3333 7.08764 10.8417 5.60889 8.99999 5.60889ZM7.33332 8.91336C7.33332 9.82208 8.08332 10.5656 8.99999 10.5656C9.91666 10.5656 10.6667 9.82208 10.6667 8.91336C10.6667 8.00464 9.91666 7.26114 8.99999 7.26114C8.08332 7.26114 7.33332 8.00464 7.33332 8.91336Z" fill="#545F7D"/>
</g>
</g>
<defs>
<filter id="filter0_d" x="-37" y="-446" width="240" height="920" filterUnits="userSpaceOnUse" color-interpolation-filters="sRGB">
<feFlood flood-opacity="0" result="BackgroundImageFix"/>
<feColorMatrix in="SourceAlpha" type="matrix" values="0 0 0 0 0 0 0 0 0 0 0 0 0 0 0 0 0 0 127 0"/>
<feOffset dx="1"/>
<feGaussianBlur stdDeviation="5"/>
<feColorMatrix type="matrix" values="0 0 0 0 0 0 0 0 0 0 0 0 0 0 0 0 0 0 0.0276834 0"/>
<feBlend mode="normal" in2="BackgroundImageFix" result="effect1_dropShadow"/>
<feBlend mode="normal" in="SourceGraphic" in2="effect1_dropShadow" result="shape"/>
</filter>
<clipPath id="clip0">
<rect width="1440" height="900" fill="white" transform="translate(-28 -436)"/>
</clipPath>
</defs>
</svg>
