<svg width="20" height="16" viewBox="0 0 20 16" fill="none" xmlns="http://www.w3.org/2000/svg">
<rect width="20" height="16" fill="#E5E5E5"/>
<g clip-path="url(#clip0)">
<rect width="1440" height="900" transform="translate(-28 -239)" fill="#F4F6F9"/>
<g filter="url(#filter0_d)">
<rect x="-28" y="-239" width="220" height="900" fill="white"/>
</g>
<path opacity="0.6" d="M3.33304 0.868652C2.38856 0.868652 1.66631 1.68115 1.66631 2.74365V9.99341L0.943617 9.18164C0.721385 8.93164 0.388906 8.93164 0.166674 9.18164C-0.055558 9.43164 -0.055558 9.80566 0.166674 10.0557L1.83341 11.9307C1.94453 12.0557 2.05521 12.1187 2.22188 12.1187C2.38856 12.1187 2.49924 12.0557 2.61036 11.9307L4.2771 10.0557C4.49933 9.80566 4.49933 9.43164 4.2771 9.18164C4.05486 8.93164 3.72238 8.93164 3.50015 9.18164L2.77746 9.99341V2.74365C2.77746 2.36865 2.9997 2.11865 3.33304 2.11865H17.7781C18.1115 2.11865 18.3337 1.86865 18.3337 1.49365C18.3337 1.11865 18.1115 0.868652 17.7781 0.868652H3.33304ZM17.7781 4.61865C17.6392 4.61865 17.5008 4.68164 17.3896 4.80664L15.7229 6.68164C15.5007 6.93164 15.5007 7.30566 15.7229 7.55566C15.9451 7.80566 16.2776 7.80566 16.4998 7.55566L17.2225 6.7439V13.9937C17.2225 14.3687 17.0003 14.6187 16.667 14.6187H2.22188C1.88854 14.6187 1.66631 14.8687 1.66631 15.2437C1.66631 15.6187 1.88854 15.8687 2.22188 15.8687H16.667C17.6114 15.8687 18.3337 15.0562 18.3337 13.9937V6.7439L19.0564 7.55566C19.1675 7.68066 19.3337 7.74365 19.4449 7.74365C19.556 7.74365 19.7222 7.68066 19.8333 7.55566C20.0556 7.30566 20.0556 6.93164 19.8333 6.68164L18.1666 4.80664C18.0555 4.68164 17.917 4.61865 17.7781 4.61865Z" fill="#545F7D"/>
</g>
<defs>
<filter id="filter0_d" x="-37" y="-249" width="240" height="920" filterUnits="userSpaceOnUse" color-interpolation-filters="sRGB">
<feFlood flood-opacity="0" result="BackgroundImageFix"/>
<feColorMatrix in="SourceAlpha" type="matrix" values="0 0 0 0 0 0 0 0 0 0 0 0 0 0 0 0 0 0 127 0"/>
<feOffset dx="1"/>
<feGaussianBlur stdDeviation="5"/>
<feColorMatrix type="matrix" values="0 0 0 0 0 0 0 0 0 0 0 0 0 0 0 0 0 0 0.0276834 0"/>
<feBlend mode="normal" in2="BackgroundImageFix" result="effect1_dropShadow"/>
<feBlend mode="normal" in="SourceGraphic" in2="effect1_dropShadow" result="shape"/>
</filter>
<clipPath id="clip0">
<rect width="1440" height="900" fill="white" transform="translate(-28 -239)"/>
</clipPath>
</defs>
</svg>
